<svg version="1.0" xmlns="http://www.w3.org/2000/svg" width="825.000000ptpx" height="302.000000ptpx" viewBox="0 0 825.000000 302.000000" preserveAspectRatio="xMidYMid meet" transform="rotate(0) scale(1, 1)">

<g transform="translate(0.000000,302.000000) scale(0.100000,-0.100000)" fill="#ffffff" stroke="none">
<path d="M2028 2124 c-141 -126 -514 -326 -686 -365 -26 -6 -135 -14 -243 -17&#10;-190 -7 -197 -8 -236 -34 -69 -46 -78 -75 -81 -293 -2 -182 -1 -192 20 -230&#10;30 -52 77 -82 148 -96 l57 -11 17 -82 c19 -90 79 -301 101 -353 8 -19 25 -37&#10;40 -43 42 -16 201 -12 235 5 47 24 47 52 1 178 -34 94 -81 257 -81 282 0 4 30&#10;5 66 3 60 -4 84 -13 242 -94 194 -98 342 -192 414 -261 45 -44 48 -46 94 -40&#10;37 4 55 12 75 35 25 27 27 39 34 143 4 63 5 366 3 674 -3 619 -3 616 -67 649&#10;-53 28 -75 21 -153 -50z"/>
<path d="M3209 1890 c-69 -12 -115 -37 -159 -87 -70 -80 -75 -107 -75 -448 0&#10;-361 5 -386 88 -469 66 -66 115 -81 255 -80 92 1 108 4 160 30 41 21 66 43 90&#10;78 60 89 64 121 60 458 -3 334 -4 337 -70 419 -72 89 -197 125 -349 99z m184&#10;-209 l32 -31 3 -263 c4 -308 1 -340 -38 -379 -24 -23 -37 -28 -79 -28 -62 0&#10;-93 13 -114 50 -15 24 -17 65 -17 313 0 162 4 297 10 311 27 71 144 87 203 27z"/>
<path d="M3752 1877 c-9 -11 -12 -138 -10 -533 l3 -519 102 -3 103 -3 2 178 3&#10;178 111 6 c159 10 233 48 274 143 39 88 33 341 -8 423 -27 52 -68 92 -122 117&#10;-40 18 -69 21 -245 24 -167 3 -203 2 -213 -11z m382 -198 c26 -20 26 -22 26&#10;-145 0 -161 -4 -166 -123 -162 l-82 3 -3 150 c-1 82 0 155 2 162 4 9 28 13 79&#10;13 60 0 79 -4 101 -21z"/>
<path d="M4486 1874 c-3 -9 -6 -247 -6 -529 0 -394 3 -516 12 -521 13 -8 176&#10;-6 190 2 14 9 10 1038 -4 1052 -7 7 -45 12 -99 12 -70 0 -88 -3 -93 -16z"/>
<path d="M4852 1878 c-15 -15 -17 -1024 -2 -1048 12 -20 179 -18 191 2 5 7 9&#10;132 9 277 0 151 4 261 9 255 4 -5 49 -99 99 -209 50 -110 104 -231 121 -268&#10;l32 -68 97 3 97 3 3 523 c2 413 0 523 -10 527 -26 7 -167 12 -178 5 -8 -5 -11&#10;-88 -10 -290 0 -224 -2 -281 -12 -278 -11 4 -86 173 -235 527 l-21 51 -89 0&#10;c-56 0 -93 -4 -101 -12z"/>
<path d="M5862 1873 c-6 -10 -34 -124 -62 -253 -29 -129 -72 -323 -97 -430&#10;-60 -267 -78 -359 -72 -365 9 -9 173 -15 186 -7 7 4 21 46 31 92 l18 85 124 0&#10;124 0 20 -82 c12 -45 25 -85 29 -90 12 -11 49 -13 125 -7 48 4 62 9 62 22 0&#10;16 -185 846 -217 977 l-18 70 -122 3 c-108 2 -123 1 -131 -15z m172 -491 c20&#10;-90 36 -172 36 -182 0 -18 -7 -20 -80 -20 -55 0 -80 4 -80 12 0 34 75 367 81&#10;361 4 -5 23 -81 43 -171z"/>
<path d="M7098 1498 l-3 -123 -127 -3 c-114 -2 -127 -4 -133 -21 -3 -11 -3&#10;-31 1 -45 l6 -26 129 0 129 0 0 -115 c0 -128 7 -141 69 -129 l31 7 1 96 c1 53&#10;2 105 3 116 1 19 9 20 128 23 125 3 128 3 134 27 14 57 10 60 -131 65 l-130 5&#10;-3 123 -3 122 -49 0 -49 0 -3 -122z"/>
<path d="M2344 1556 c-17 -13 -19 -27 -19 -156 0 -114 3 -143 15 -150 26 -17&#10;68 -11 90 12 18 19 20 35 20 140 0 113 -1 120 -25 143 -27 28 -52 31 -81 11z"/>
</g>
</svg>